<?xml version="1.0" encoding="UTF-8"?>
<svg width="24px" height="24px" viewBox="0 0 24 24" version="1.1" xmlns="http://www.w3.org/2000/svg" xmlns:xlink="http://www.w3.org/1999/xlink">
    <!-- Generator: Sketch 49.1 (51147) - http://www.bohemiancoding.com/sketch -->
    <title>sports</title>
    <desc>Created with Sketch.</desc>
    <defs>
        <path d="M20.4848448,20.4852093 C15.7984571,25.1715969 8.20081395,25.1715969 3.51442629,20.4852093 C-1.17147543,15.7988216 -1.17147543,8.2011784 3.51442629,3.51479074 C8.20081395,-1.17159691 15.7984571,-1.17159691 20.4848448,3.51479074 C25.1717184,8.2011784 25.1717184,15.7988216 20.4848448,20.4852093" id="path-1"></path>
        <path d="M4.17523403,4.17555229 C-0.359486613,8.71069729 -0.359486613,16.0636138 4.17523403,20.5982886 C8.7108952,25.1339038 16.0638862,25.1339038 20.5986068,20.5982886 C25.1337977,16.0636138 25.1337977,8.71069729 20.5986068,4.17555229 C18.3310114,1.9079798 15.3589659,0.774193548 12.3873907,0.774193548" id="path-3"></path>
    </defs>
    <g id="Final" stroke="none" stroke-width="1" fill="none" fill-rule="evenodd">
        <g id="sports">
            <polygon id="Shape" points="0 0 24 0 24 24 0 24"></polygon>
            <g id="icon">
                <mask id="mask-2" fill="white">
                    <use xlink:href="#path-1"></use>
                </mask>
                <use id="Mask" fill="#F6BF15" xlink:href="#path-1"></use>
                <rect id="Rectangle-8" fill="#FBB216" mask="url(#mask-2)" x="11.6129032" y="-3.87096774" width="17.8064516" height="31.7419355"></rect>
                <mask id="mask-4" fill="white">
                    <use xlink:href="#path-3"></use>
                </mask>
                <g id="Clip-4"></g>
                <path d="M20.502479,19.8509271 L12.619574,11.9708246 L14.4227741,10.1682657 C19.0333659,14.1995307 23.0462705,13.4669244 23.2258663,13.4321763 C23.7453424,13.3288972 24.0813604,12.8269798 23.9828724,12.3062406 C23.8839015,11.7855013 23.3798745,11.4428462 22.8584673,11.5364731 C22.7174942,11.5620516 19.5967754,12.0692777 15.793882,8.79764523 L20.3933697,4.19979271 L19.0275725,2.83448099 L14.4087733,7.45212064 C10.8400304,3.57480909 11.6192446,0.625079418 11.6626952,0.47595205 C11.8181518,-0.0293435918 11.5395852,-0.566491681 11.033627,-0.728166982 C10.5257377,-0.890324896 9.98212242,-0.61040945 9.82038962,-0.10221813 C9.76583497,0.0691094273 8.57528844,4.01929551 13.0371826,8.8227411 L11.2542595,10.6055129 L3.55191592,2.90639031 C3.17486124,2.52946968 2.56365609,2.52946968 2.18660141,2.90639031 C1.80906395,3.28331093 1.80906395,3.89429879 2.18660141,4.27121942 L9.88846223,11.9708246 L8.04663944,13.81151 C3.2414855,9.35071954 -0.710105475,10.5408428 -0.881493966,10.5958607 C-1.38503818,10.7565707 -1.66022533,11.2908232 -1.50525151,11.7961188 C-1.35076048,12.3018971 -0.811973,12.5871212 -0.305049296,12.4379939 C-0.175663055,12.3998675 2.78332303,11.6021084 6.67553151,15.1826131 L2.14121967,19.7153129 L3.50653418,21.080142 L8.02105186,16.5672293 C11.2943306,20.3687707 10.7874069,23.4878974 10.7627849,23.6210986 C10.697609,23.9492753 10.8076839,24.2716607 11.0283164,24.4917321 C11.1586682,24.6225202 11.3276428,24.7171123 11.5222049,24.7557214 C12.0455433,24.8590005 12.5539153,24.5187585 12.657714,23.9960888 C12.6924745,23.8170394 13.4253413,19.8055615 9.39215978,15.1966089 L11.2542595,13.3356538 L19.1371645,21.2162388 C19.5142192,21.5931594 20.1259071,21.5931594 20.502479,21.2162388 C20.8795337,20.8393182 20.8795337,20.2278477 20.502479,19.8509271" id="Fill-3" fill="#CCA300" mask="url(#mask-4)"></path>
            </g>
        </g>
    </g>
</svg>