<?xml version="1.0" encoding="UTF-8"?>
<svg width="22px" height="19px" viewBox="0 0 22 19" version="1.1" xmlns="http://www.w3.org/2000/svg" xmlns:xlink="http://www.w3.org/1999/xlink">
    <!-- Generator: Sketch 49.1 (51147) - http://www.bohemiancoding.com/sketch -->
    <title>dining</title>
    <desc>Created with Sketch.</desc>
    <defs>
        <path d="M20.7390311,14.5116 L20.7390311,15.88446 C20.7390311,17.51658 19.8496413,18.84072 18.7517536,18.84072 L2.58208339,18.84072 C1.48419567,18.84072 0.594302277,17.51658 0.594302277,15.88446 L0.594302277,14.5116 C0.594302277,13.89042 0.933237339,13.3864 1.35073684,13.3864 L5.79768572,13.3864 L7.31005123,15.63564 L8.82191313,13.3864 L19.9831001,13.3864 C20.4005996,13.3864 20.7390311,13.89042 20.7390311,14.5116 Z M20.7390311,6.21586 C20.7390311,6.8382 20.4005996,7.34106 19.9831001,7.34106 L1.35073684,7.34106 C1.14173528,7.34106 0.952878449,7.21578 0.815894293,7.0122 C0.679917374,6.8092 0.594302277,6.52732 0.594302277,6.21586 C0.594302277,3.7265 1.68816105,1.61704 3.20002294,0.89436 L5.66775222,0.6264 L16.9820391,0.6264 C18.0194927,0.6264 18.9587407,1.25222 19.6391289,2.26316 C20.3190135,3.27526 20.7390311,4.6719 20.7390311,6.21586 Z M4.56281385,0.04756 C4.5310859,0.0464 4.50086881,0.0464 4.46964448,0.0464 L4.56079937,0.0464 L4.56180661,0.04756 L4.56281385,0.04756 Z" id="path-1"></path>
    </defs>
    <g id="Final" stroke="none" stroke-width="1" fill="none" fill-rule="evenodd">
        <g id="dining" transform="translate(-1.000000, -2.000000)">
            <polygon id="Shape" points="0 0 24 0 24 24 0 24"></polygon>
            <g id="Group" transform="translate(1.333333, 2.000000)">
                <polygon id="Shape" fill="#FF4E4E" fill-rule="nonzero" points="12.204915 8.73886 9.48941891 12.09532 19.7317946 12.09532 19.7317946 8.73886"></polygon>
                <polygon id="Shape" fill="#FF4E4E" fill-rule="nonzero" points="2.80613397 8.73886 1.60153872 8.73886 1.60153872 12.09532 4.99539162 12.09532"></polygon>
                <g id="Rectangle-12">
                    <mask id="mask-2" fill="white">
                        <use xlink:href="#path-1"></use>
                    </mask>
                    <use id="Mask" fill="#FBB216" fill-rule="nonzero" xlink:href="#path-1"></use>
                    <rect fill="#F6BF16" mask="url(#mask-2)" x="-4.01568627" y="-7.54" width="14.6823529" height="30.16"></rect>
                </g>
                <polygon id="Shape" fill="#FBB216" fill-rule="nonzero" points="10.4052888 8.5376 8.82191313 10.89472 7.31005123 13.14396 5.79768572 10.89472 4.21380642 8.53818"></polygon>
            </g>
        </g>
    </g>
</svg>