<?xml version="1.0" encoding="UTF-8"?>
<svg width="24px" height="20px" viewBox="0 0 24 20" version="1.1" xmlns="http://www.w3.org/2000/svg" xmlns:xlink="http://www.w3.org/1999/xlink">
    <!-- Generator: Sketch 49.1 (51147) - http://www.bohemiancoding.com/sketch -->
    <title>home</title>
    <desc>Created with Sketch.</desc>
    <defs></defs>
    <g id="Final" stroke="none" stroke-width="1" fill="none" fill-rule="evenodd">
        <g id="home" transform="translate(0.000000, -2.000000)">
            <polygon id="Shape" points="0 0 24 0 24 24 0 24"></polygon>
            <g id="icon" transform="translate(0.000000, 2.000000)" fill-rule="nonzero">
                <path d="M17.1052751,13.8181818 L11.4119865,13.8181818 L11.4119865,0 L18.4146791,0 C20.0193537,0 21.3320312,0.724319752 21.3320312,1.60916653 L21.3320312,5.4410232 C18.9379101,5.82055642 17.1052751,7.62321955 17.1052751,9.81749087 L17.1052751,13.8181818 Z" id="Combined-Shape" fill="#4289F6"></path>
                <path d="M7.13584706,13.8180748 L7.13584706,9.81756687 L3.20763502,9.81815694 L7.13584706,9.81815694 C7.13584706,7.62545917 5.30586789,5.82380512 2.90909091,5.4420828 L2.90909091,1.60939343 C2.90909091,0.724421884 4.22242313,0 5.82644305,0 L12.8291357,0 L12.8291357,13.8170128 C10.5326027,13.8175564 8.63485834,13.8179104 7.13584706,13.8180748 Z" id="Combined-Shape" fill="#286FDC"></path>
                <polygon id="Shape" fill="#0F56C3" points="7.16053868 10.9090909 17.0805835 10.9090909 17.0805835 19.6363636 7.16053868 19.6363636"></polygon>
                <path d="M5.73892683,19.6363636 L1.04370732,19.6363636 L1.04370732,11.0424511 C0.405658537,10.5775529 0,9.87350024 0,9.08507303 C0,7.68255545 1.28487805,6.54601332 2.86946341,6.54601332 C2.95726829,6.54601332 3.0444878,6.55048349 3.13053659,6.55718876 C4.59278049,6.67397209 5.73892683,7.76078352 5.73892683,9.08507303 L5.73892683,19.6363636 Z M21.1305366,6.54545455 C21.0433869,6.54569747 20.9562861,6.54942588 20.8694634,6.55662998 C19.4072195,6.67341332 18.2610732,7.76022475 18.2610732,9.08451426 L18.2610732,19.6363636 L22.9562927,19.6363636 L22.9562927,11.0430099 C23.5937561,10.5769941 24,9.8723827 24,9.08451426 C24,7.68255545 22.715122,6.54545455 21.1305366,6.54545455 Z" id="Shape" fill="#286FDC"></path>
            </g>
        </g>
    </g>
</svg>