<?xml version="1.0" encoding="iso-8859-1"?>
<!-- Generator: Adobe Illustrator 19.0.0, SVG Export Plug-In . SVG Version: 6.00 Build 0)  -->
<svg version="1.1" id="Layer_1" xmlns="http://www.w3.org/2000/svg" xmlns:xlink="http://www.w3.org/1999/xlink" x="0px" y="0px"
	 viewBox="0 0 460 460" style="enable-background:new 0 0 460 460;" xml:space="preserve">
<g>
	<path style="fill:#FF6161;" d="M230,0C102.974,0,0,102.974,0,230c0,123.448,97.257,224.181,219.328,229.757l240.429-240.429
		C454.181,97.257,353.448,0,230,0z"/>
	<path style="fill:#FF0F27;" d="M187.927,428.344l31.401,31.402C222.866,459.907,226.422,460,230,460c127.025,0,230-102.975,230-230
		c0-3.578-0.093-7.134-0.255-10.671l-73.828-73.828L187.927,428.344z"/>
	<polygon style="fill:#FFAD9E;" points="109.792,350.208 208.787,208.787 350.208,109.792 385.917,145.501 371.775,187.927 
		385.917,230.354 187.927,428.343 	"/>
	
		<rect x="20.937" y="135.683" transform="matrix(0.7071 -0.7071 0.7071 0.7071 -79.0859 190.9346)" style="fill:#FFEDB5;" width="339.997" height="110.499"/>
	<polygon style="fill:#FFEDB5;" points="187.927,400.059 371.775,216.211 371.775,159.643 336.066,123.934 215.391,216.325 
		123.934,336.066 	"/>
	
		<rect x="48.008" y="152.754" transform="matrix(0.7071 -0.7071 0.7071 0.7071 -82.0147 198.0057)" style="fill:#FFFFFF;" width="299.997" height="90.499"/>
	
		<rect x="92.366" y="262.076" transform="matrix(0.7071 0.7071 -0.7071 0.7071 222.3688 7.3051)" style="fill:#FF0F27;" width="20" height="20"/>
	
		<rect x="120.651" y="233.791" transform="matrix(0.7071 0.7071 -0.7071 0.7071 210.6533 -20.9797)" style="fill:#FF0F27;" width="20" height="20"/>
	
		<rect x="148.935" y="205.507" transform="matrix(0.7071 0.7071 -0.7071 0.7071 198.9374 -49.2635)" style="fill:#FF0F27;" width="20" height="20"/>
	
		<rect x="205.505" y="148.938" transform="matrix(0.7071 0.7071 -0.7071 0.7071 175.5064 -105.8331)" style="fill:#FF0F27;" width="20" height="20"/>
	
		<rect x="233.789" y="120.654" transform="matrix(0.7071 0.7071 -0.7071 0.7071 163.7905 -134.117)" style="fill:#FF0F27;" width="20" height="20"/>
	
		<rect x="177.22" y="177.223" transform="matrix(0.7071 0.7071 -0.7071 0.7071 187.2219 -77.5483)" style="fill:#FF0F27;" width="20" height="20"/>
	
		<rect x="262.074" y="92.37" transform="matrix(0.7071 0.7071 -0.7071 0.7071 152.075 -162.4017)" style="fill:#FF0F27;" width="20" height="20"/>
	
		<rect x="290.471" y="120.867" transform="matrix(0.7071 0.7071 -0.7071 0.7071 180.5722 -174.2058)" style="fill:#FF0F27;" width="20.2" height="20"/>
	
		<rect x="319.038" y="149.434" transform="matrix(0.7071 0.7071 -0.7071 0.7071 209.1392 -186.0384)" style="fill:#C2001B;" width="20.199" height="20"/>
	
		<rect x="206.211" y="319.352" transform="matrix(0.7071 0.7071 -0.7071 0.7071 296.214 -56.4194)" style="fill:#C2001B;" width="20" height="20"/>
	
		<rect x="234.495" y="291.068" transform="matrix(0.7071 0.7071 -0.7071 0.7071 284.4981 -84.7033)" style="fill:#C2001B;" width="20" height="20"/>
	
		<rect x="319.349" y="206.215" transform="matrix(0.7071 0.7071 -0.7071 0.7071 249.3511 -169.5567)" style="fill:#C2001B;" width="20" height="20"/>
	
		<rect x="291.065" y="234.499" transform="matrix(0.7071 0.7071 -0.7071 0.7071 261.067 -141.2729)" style="fill:#C2001B;" width="20" height="20"/>
	
		<rect x="262.78" y="262.784" transform="matrix(0.7071 0.7071 -0.7071 0.7071 272.7826 -112.9881)" style="fill:#C2001B;" width="20" height="20"/>
	
		<rect x="177.931" y="347.634" transform="matrix(0.7071 -0.7071 0.7071 0.7071 -197.8416 237.6357)" style="fill:#C2001B;" width="20" height="20"/>
	
		<rect x="120.765" y="290.566" transform="matrix(-0.7071 -0.7071 0.7071 -0.7071 10.8678 605.6338)" style="fill:#FF0F27;" width="20.199" height="20"/>
	
		<rect x="149.33" y="319.14" transform="matrix(0.7071 0.7071 -0.7071 0.7071 279.433 -16.3309)" style="fill:#C2001B;" width="20.2" height="20"/>
	<polygon style="fill:#940030;" points="385.917,145.501 343.491,187.927 385.917,230.354 	"/>
</g>
<g>
</g>
<g>
</g>
<g>
</g>
<g>
</g>
<g>
</g>
<g>
</g>
<g>
</g>
<g>
</g>
<g>
</g>
<g>
</g>
<g>
</g>
<g>
</g>
<g>
</g>
<g>
</g>
<g>
</g>
</svg>
