<?xml version="1.0" encoding="iso-8859-1"?>
<!-- Generator: Adobe Illustrator 19.0.0, SVG Export Plug-In . SVG Version: 6.00 Build 0)  -->
<svg version="1.1" id="Capa_1" xmlns="http://www.w3.org/2000/svg" xmlns:xlink="http://www.w3.org/1999/xlink" x="0px" y="0px"
	 viewBox="0 0 512 512" style="enable-background:new 0 0 512 512;" xml:space="preserve">
<rect x="50" y="222" style="fill:#81B3E6;" width="412" height="40"/>
<rect x="200" y="462" style="fill:#4AC2B1;" width="262" height="40"/>
<rect x="90" y="10" style="fill:#E6FFFF;" width="332" height="112"/>
<path style="fill:#F5601E;" d="M50,262v200h40h110h262V262H50z"/>
<rect x="270" y="302" style="fill:#63C3E6;" width="110" height="110"/>
<rect x="50" y="462" style="fill:#4AC2B1;" width="40" height="40"/>
<path style="fill:#EE4554;" d="M140.02,122H90c-59,0-80,52-80,100h80.036C90.787,176.759,104.407,129.404,140.02,122z"/>
<path style="fill:#E6FFFF;" d="M209.347,122H140.02c-35.613,7.404-49.233,54.759-49.984,100h85.988
	C176.525,176.759,185.605,129.404,209.347,122z"/>
<g>
	<path style="fill:#EE4554;" d="M209.347,122c-23.742,7.404-32.822,54.759-33.323,100H256V122H209.347z"/>
	<path style="fill:#EE4554;" d="M369.98,122h-69.327c23.742,7.404,32.822,54.759,33.323,100h85.988
		C419.213,176.759,405.593,129.404,369.98,122z"/>
</g>
<g>
	<path style="fill:#E6FFFF;" d="M300.653,122H256v100h77.976C333.475,176.759,324.395,129.404,300.653,122z"/>
	<path style="fill:#E6FFFF;" d="M419.964,222H502c0-48-21-100-80-100h-52.02C405.593,129.404,419.213,176.759,419.964,222z"/>
</g>
<rect x="90" y="302" style="fill:#B53C1D;" width="110" height="200"/>
<path d="M502,492h-30V232h30c5.523,0,10-4.477,10-10c0-28.45-6.941-54.565-19.546-73.534
	c-14.064-21.165-34.831-33.469-60.454-35.978V10c0-5.523-4.477-10-10-10H90c-5.523,0-10,4.477-10,10v102.488
	c-25.623,2.508-46.39,14.813-60.454,35.978C6.941,167.435,0,193.55,0,222c0,5.523,4.477,10,10,10h30v270c0,5.523,4.477,10,10,10h452
	c5.51,0,10-4.49,10-10S507.51,492,502,492z M200,292H90c-5.523,0-10,4.477-10,10v150H60V272h392v180H210V302
	C210,296.477,205.523,292,200,292z M452,232v20H60v-20H452z M100.445,212c2.296-36.341,13.94-73.698,40.767-80h42.67
	c-3.734,6.296-6.915,13.983-9.522,23.046c-5.413,18.811-7.439,40.01-8.088,56.954H100.445z M186.281,212
	c1.73-42.942,11.333-74.188,24.821-80H246v80H186.281z M266,212v-80h32.898c13.488,5.812,23.091,37.058,24.821,80H266z M326.118,132
	h42.67c26.827,6.302,38.471,43.659,40.767,80h-65.827c-0.649-16.944-2.675-38.143-8.088-56.954
	C333.032,145.983,329.851,138.296,326.118,132z M475.796,159.534c9.011,13.561,14.53,31.921,15.879,52.466h-62.062
	c-1.922-34.972-10.95-62.56-25.619-80H422C445.556,132,463.656,141.264,475.796,159.534z M100,20h312v92H100V20z M20.325,212
	c1.349-20.544,6.869-38.905,15.879-52.466C48.344,141.264,66.444,132,90,132h16.005c-14.669,17.44-23.697,45.028-25.619,80H20.325z
	 M60,492v-20h20v20H60z M100,492V312h90v180H100z M210,492v-20h242v20H210z"/>
<path d="M10,492c-5.51,0-10,4.49-10,10s4.49,10,10,10s10-4.49,10-10S15.51,492,10,492z"/>
<path d="M167.566,87.232c-3.456,2.175-8.088,1.528-11.66,0.003c-3.273-1.398-6.248-5.801-9.928-5.804
	c-3.578-0.002-6.122,4.38-6.122,7.56c0,3.001,2.16,5.701,6.48,8.1c4.319,2.401,9.39,3.6,15.21,3.6c6.719,0,12.149-1.723,16.29-5.169
	c4.14-3.447,6.21-8.263,6.21-14.451c0-7.982-4.084-14.02-10.741-18.148c-4.937-3.061-11.153-4.383-15.674-8.041
	c-2.613-2.115-2.81-5.542,0.134-7.605c3.89-2.725,10.501-1.807,14.491,0.135c5.246,2.552,10.167,0.806,10.169-5.787
	c0.001-3.889-3.964-6.007-7.246-6.818c-3.489-0.861-7.068-1.345-10.664-1.345c-6.36,0-11.79,1.575-16.29,4.725
	s-6.75,7.904-6.75,14.265c0,3.901,0.975,7.26,2.925,10.08c3.196,4.622,8.247,7.046,13.175,9.379
	c4.208,1.992,12.429,4.937,12.43,10.6C170.007,84.778,169.052,86.297,167.566,87.232z"/>
<path d="M199.784,98.689c1.487,0.829,3.486,1.102,4.962,1.102c2.504,0,7.02-0.947,7.02-4.32v-24.39h17.91c0,0,0,24.33,0,24.39
	c0,3.33,4.399,4.32,7.02,4.32c2.507,0,7.02-0.947,7.02-4.32c0,0,0-56.813,0-57.238c0-3.41-4.388-4.232-7.02-4.232
	c-2.617,0-7.02,0.847-7.02,4.23v22.05h-17.91c0,0,0-21.899,0-22.05c0-3.408-4.406-4.231-7.02-4.231c-2.62,0-7.02,0.848-7.02,4.23
	c0,0,0,56.775,0,57.241C197.727,97.001,198.591,98.024,199.784,98.689z"/>
<path d="M265.495,95.201c4.019,3.42,9.359,5.13,16.019,5.13c13.041,0,22.141-7.963,22.141-21.24c0,0,0-23.813,0-23.85
	c0-13.236-9.039-21.24-22.14-21.24c-13.066,0-22.05,7.965-22.05,21.24v23.85C259.465,86.412,261.475,91.781,265.495,95.201z
	 M273.505,55.241c0-5.999,2.669-9,8.01-9c5.4,0,8.101,3.001,8.101,9v23.85c0,6-2.7,9-8.101,9c-5.341,0-8.01-3-8.01-9V55.241z"/>
<path d="M321.479,98.658c1.497,0.838,3.501,1.133,4.946,1.133c2.668,0,7.02-0.898,7.02-4.32v-19.44h8.91
	c6.66,0,12.014-1.695,16.064-5.085c8.303-6.951,8.511-24.86,0.271-31.95c-3.87-3.33-9.016-4.995-15.436-4.995c0,0-18.574,0-18.63,0
	c-2.331,0-5.22,1.461-5.22,4.23c0,0,0,56.679,0,57.236C319.404,96.965,320.279,97.986,321.479,98.658z M333.444,46.241h8.91
	c5.399,0,8.1,3.001,8.1,9v0.99c0,6-2.7,9-8.1,9h-8.91V46.241z"/>
<path d="M247,422h156c5.523,0,10-4.477,10-10s-4.477-10-10-10h-13V302c0-5.523-4.477-10-10-10H270c-5.523,0-10,4.477-10,10v100h-13
	c-5.523,0-10,4.477-10,10S241.477,422,247,422z M280,312h90v90h-90V312z"/>
<circle cx="160" cy="398" r="10"/>
<g>
</g>
<g>
</g>
<g>
</g>
<g>
</g>
<g>
</g>
<g>
</g>
<g>
</g>
<g>
</g>
<g>
</g>
<g>
</g>
<g>
</g>
<g>
</g>
<g>
</g>
<g>
</g>
<g>
</g>
</svg>
