<?xml version="1.0" encoding="UTF-8"?>
<svg width="24px" height="23px" viewBox="0 0 24 23" version="1.1" xmlns="http://www.w3.org/2000/svg" xmlns:xlink="http://www.w3.org/1999/xlink">
    <!-- Generator: Sketch 49.1 (51147) - http://www.bohemiancoding.com/sketch -->
    <title>groceries</title>
    <desc>Created with Sketch.</desc>
    <defs></defs>
    <g id="Final" stroke="none" stroke-width="1" fill="none" fill-rule="evenodd">
        <g id="groceries" transform="translate(0.000000, -1.000000)">
            <polygon id="Shape" points="0 0 24 0 24 24 0 24"></polygon>
            <g id="icon" transform="translate(0.000000, 1.333333)">
                <path d="M11.8382919,21.5837583 C14.4341817,21.9002126 17.0527745,21.2231119 19.1892973,19.6829775 L19.9984216,19.0384428 C22.1496649,17.1478075 23.5536649,14.3864535 23.6680865,11.265831 C23.7126227,10.0708758 23.5612795,10.0395873 23.2203243,8.89568944 C23.1006486,8.52269479 22.8537081,8.35977072 22.7042595,8.29293008 C21.803396,7.97308617 20.8609381,7.79226192 19.9079351,7.75641457 C16.4179707,7.62013544 13.1309829,11.0671106 11.3251459,14.1231302 C11.3033514,14.0913013 11.3304,16.5578864 11.4062919,21.5228856 C11.549884,21.5456705 11.6939118,21.5661643 11.8382919,21.5837583 Z" id="Shape" fill="#34B17E" fill-rule="nonzero"></path>
                <path d="M11.2545916,21.8737746 C12.9851848,22.0847441 13.2446762,19.223744 12.0330659,13.2907742 C9.45955328,10.816079 5.80088347,9.43609824 1.05705644,9.15083193 C0.937380769,9.14963834 0.512386174,9.18186508 0.427737525,9.69629931 C0.356913042,10.2447288 0.322391291,9.12217327 0.324407796,9.67535747 C0.461596985,11.3075821 0.851564553,13.5962773 1.90412671,15.7226452 C3.83601726,19.1763404 7.27674939,21.4675136 11.1477591,21.8779521 L10.8225916,21.8129019 C10.9661837,21.8356868 11.1102115,21.8561806 11.2545916,21.8737746 Z" id="Shape" fill="#3AC88E" fill-rule="nonzero"></path>
                <path d="M11.7224802,11.9994376 C9.77537887,10.0425081 7.90512833,9.0263545 6.11172857,8.9509767 C3.42162894,8.83790999 6.9687638,3.77967914 11.1411178,3.77967914 C15.3134717,3.77967914 18.1345835,6.82338035 16.8573174,7.27577131 C15.1682132,7.87402994 13.4566008,9.44858538 11.7224802,11.9994376 Z" id="Path-2" fill="#34B17E"></path>
                <path d="M3.92691464,8.3411162 C1.52518776,8.3411162 0.324324324,8.40934358 0.324324324,8.54579835 C0.324324324,8.7504805 1.6437781,4.22912155 4.08367143,2.66087909 C5.71026699,1.61538413 7.23909783,1.3885586 8.67016397,1.98040253 C11.1464676,0.270539792 13.7979163,-0.208474032 16.6245099,0.543361059 C19.4511036,1.29519615 21.6493856,3.50568896 23.2193561,7.1748395 C21.8989961,6.92839195 21.052908,6.80516817 20.681092,6.80516817 C20.3092759,6.80516817 19.4873243,6.80516817 18.2152372,6.80516817 C16.4284236,3.67585087 13.7054488,2.4348076 10.0463129,3.08203836 C6.38717696,3.72926911 4.34737754,5.48229506 3.92691464,8.3411162 Z" id="Path-3" fill="#61DDAB"></path>
            </g>
        </g>
    </g>
</svg>