<?xml version="1.0" encoding="UTF-8"?>
<svg width="24px" height="16px" viewBox="0 0 24 16" version="1.1" xmlns="http://www.w3.org/2000/svg" xmlns:xlink="http://www.w3.org/1999/xlink">
    <!-- Generator: Sketch 49.1 (51147) - http://www.bohemiancoding.com/sketch -->
    <title>beauty copy</title>
    <desc>Created with Sketch.</desc>
    <defs></defs>
    <g id="Final" stroke="none" stroke-width="1" fill="none" fill-rule="evenodd">
        <g id="beauty-copy" transform="translate(0.000000, -4.000000)">
            <path d="M24,10.588074 C20.0176323,10.588074 18.1213563,4 15.7510516,4 C13.380747,4 12.3372173,6.04082839 12.3372173,6.04082839 L12.0694002,6.5332957 C12.0694002,6.5332957 10.619253,4.00005376 8.24900214,4.00005376 C5.87869747,4.00005376 3.98236772,10.6601083 0,10.6601083 C0,10.6601083 2.65510892,20.0111814 11.6627827,20.0111814 L12.3372173,19.9752181 C21.3448911,19.9751643 24,10.588074 24,10.588074 Z M12.0056445,13.0663226 C10.5149108,13.0663226 9.30688492,12.8288245 9.30688492,12.5363867 C9.30688492,12.2433577 10.5149108,12.0063971 12.0056445,12.0063971 C13.4958943,12.0063971 14.704404,12.2438952 14.704404,12.5363867 C14.704404,12.8288245 13.4958943,13.0663226 12.0056445,13.0663226 Z" id="Shape" fill="#FF4E4E"></path>
            <path d="M12,19.9931997 L12,13.0663216 C12.001881,13.0663222 12.0037625,13.0663226 12.0056445,13.0663226 C13.4958943,13.0663226 14.704404,12.8288245 14.704404,12.5363867 C14.704404,12.2438952 13.4958943,12.0063971 12.0056445,12.0063971 C12.0037625,12.0063971 12.001881,12.0063975 12,12.0063982 L12,6.42060193 C12.0459024,6.49224767 12.0694002,6.5332957 12.0694002,6.5332957 L12.3372173,6.04082839 C12.3372173,6.04082839 13.380747,4 15.7510516,4 C18.1213563,4 20.0176323,10.588074 24,10.588074 C24,10.588074 21.3448911,19.9751643 12.3372173,19.9752181 L12,19.9931997 Z" id="Combined-Shape" fill="#E94545"></path>
            <polygon id="Shape" points="0 0 24 0 24 24 0 24"></polygon>
        </g>
    </g>
</svg>