<?xml version="1.0" encoding="UTF-8"?>
<svg width="24px" height="17px" viewBox="0 0 24 17" version="1.1" xmlns="http://www.w3.org/2000/svg" xmlns:xlink="http://www.w3.org/1999/xlink">
    <!-- Generator: Sketch 49.1 (51147) - http://www.bohemiancoding.com/sketch -->
    <title>travel</title>
    <desc>Created with Sketch.</desc>
    <defs>
        <path d="M23.934963,1.04632099 C23.4943704,0.0113580247 20.797037,0.169777778 19.7615802,0.610814815 L5.01787654,6.8985679 C3.24039506,5.53965432 3.79461728,5.96345679 2.53125926,4.99753086 C2.30523457,4.82503704 2.00414815,4.7868642 1.74237037,4.89851852 L0.479358025,5.43703704 C0.272592593,5.52553086 0.113432099,5.69767901 0.0414814815,5.91032099 C-0.0304691358,6.12340741 -0.00804938272,6.35688889 0.102814815,6.55224691 C1.1562963,8.40992593 0.633481481,7.48775309 2.59338272,10.9445432 C2.96251852,11.5954568 3.76123457,11.8654815 4.44953086,11.5719012 C5.7494321,11.0176296 4.16651852,11.6925926 10.0466667,9.18508642 C10.5277531,11.1894321 10.1425185,9.58562963 11.630321,15.7790123 C11.6845926,16.005037 11.8355062,16.1953086 12.0430617,16.2998519 C12.2506667,16.404 12.4935802,16.4119506 12.707358,16.3207407 L14.3159012,15.634716 C14.5336296,15.5415802 14.6983704,15.3556543 14.7643951,15.1280494 C16.8957037,7.76834568 16.6142716,8.74014815 17.3929877,6.05219753 L21.3603457,4.36 C22.3964444,3.91817284 24.3767407,2.08133333 23.934963,1.04632099 Z" id="path-1"></path>
    </defs>
    <g id="Final" stroke="none" stroke-width="1" fill="none" fill-rule="evenodd">
        <g id="travel" transform="translate(0.000000, -4.000000)">
            <rect id="Rectangle" fill-opacity="0" fill="#D8D8D8" x="0" y="0" width="24" height="24"></rect>
            <g id="flights" transform="translate(0.000000, 4.000000)">
                <path d="M7.45540741,4.08681481 L13.0866667,1.68508642 L8.43451852,0.0537777778 C8.24864198,-0.0114074074 8.04498765,-0.00479012346 7.86375309,0.072691358 L6.24271605,0.763753086 C6.02177778,0.858074074 5.85590123,1.04750617 5.79185185,1.27866667 C5.72740741,1.50977778 5.77180247,1.75738272 5.91254321,1.952 L7.45540741,4.08681481 Z" id="XMLID_212_" fill="#34C07B"></path>
                <mask id="mask-2" fill="white">
                    <use xlink:href="#path-1"></use>
                </mask>
                <use id="Mask" fill="#3AC88E" xlink:href="#path-1"></use>
                <path d="M25.3060377,-2.02437009 C24.7522633,-3.32520002 21.3620241,-3.12608453 20.0605735,-2.57175148 C20.0605735,-2.57175148 -4.63489874,3.82185431 -4.72533243,4.08912092 C-4.81576612,4.35694615 -4.78758706,4.65040564 -4.64824345,4.8959483 C-3.32413787,7.2308381 -3.98125622,6.07177244 -1.5178848,10.4165618 C-1.05392337,11.2346856 -0.0500287569,11.5740757 0.81508087,11.205079 C2.44890787,10.508423 22.0700386,2.14054497 22.0700386,2.14054497 C23.3722961,1.58521883 25.8613018,-0.723478094 25.3060377,-2.02437009 Z" id="XMLID_211_" fill="#34B17E" mask="url(#mask-2)"></path>
            </g>
        </g>
    </g>
</svg>