<?xml version="1.0"?>
<svg xmlns="http://www.w3.org/2000/svg" xmlns:xlink="http://www.w3.org/1999/xlink" version="1.1" id="Capa_1" x="0px" y="0px" width="512px" height="512px" viewBox="0 0 612 612" style="enable-background:new 0 0 612 612;" xml:space="preserve" class=""><g transform="matrix(0.429889 0 0 -0.429889 174.454 437.546)"><g>
	<g>
		<path d="M324.502,123.761c-2.256-1.796-6.226-2.148-8.812-0.902c-2.597,1.242-5.137,3.865-5.137,6.742v68.184    c0,9.53-5.964,18.36-15.487,18.36H58.616c-4.131,0-6.234,2.271-6.234,6.406v166.816c0,4.13,2.103,6.375,6.234,6.375h236.451    c9.522,0,15.487,8.86,15.487,18.391v68.18c0,2.877,2.54,5.5,5.137,6.746c1.029,0.493,2.586,0.736,3.689,0.736    c1.665,0,3.543-0.558,4.901-1.639l220.448-176.342c1.773-1.418,2.862-3.569,2.862-5.844s-1.006-4.423-2.779-5.845L324.502,123.761    z M325.52,466.739v-52.606c0-17.78-12.676-33.356-30.453-33.356H67.349V231.112h227.718c17.777,0,30.453-15.546,30.453-33.327    v-52.607l200.88,160.792L325.52,466.739z" data-original="#000000" class="active-path" data-old_color="#000000" fill="#FFA722"/>
		<path d="M599.94,280.8L315.238,52.91c-9.47-7.625-23.752-9.197-34.618-3.914c-11.09,5.358-18.708,16.763-18.708,29.065v85.702    H33.847C16.062,163.763,0,180.001,0,197.785v216.348c0,17.779,16.062,33.992,33.847,33.992h228.066v85.728    c0,12.307,7.622,23.715,18.723,29.068c4.4,2.11,9.328,3.185,14.207,3.185c7.289,0,14.559-2.515,20.265-7.083l284.759-227.871    c7.696-6.125,12.134-15.3,12.134-25.182C612,296.096,607.619,286.918,599.94,280.8z M590.587,319.451L305.865,547.334    c-5.119,4.089-12.89,4.908-18.738,2.099c-5.949-2.87-10.249-8.983-10.249-15.58v-94.958c0-4.131-2.447-5.736-6.582-5.736H33.847    c-9.53,0-18.88-9.5-18.88-19.025V197.785c0-9.53,9.351-19.056,18.88-19.056h236.451c4.131,0,6.582-1.579,6.582-5.709V78.061    c0-6.593,4.299-12.71,10.271-15.595c5.848-2.847,13.369-2.013,18.491,2.114l284.849,227.917c4.108,3.27,6.519,8.183,6.519,13.474    C597.004,311.265,594.706,316.174,590.587,319.451z" data-original="#000000" class="active-path" data-old_color="#000000" fill="#FFA722"/>
	</g>
</g></g> </svg>
