<?xml version="1.0" encoding="iso-8859-1"?>
<!-- Generator: Adobe Illustrator 19.0.0, SVG Export Plug-In . SVG Version: 6.00 Build 0)  -->
<svg version="1.1" id="Capa_1" xmlns="http://www.w3.org/2000/svg" xmlns:xlink="http://www.w3.org/1999/xlink" x="0px" y="0px"
	 viewBox="0 0 512.011 512.011" style="enable-background:new 0 0 512.011 512.011;" xml:space="preserve">
<g>
	<polygon style="fill:#95A5A5;" points="273.661,326.621 341.192,394.77 304.646,431.404 229.311,356.069 	"/>
	<path style="fill:#E64C3C;" d="M26.488,0h459.034c14.626,0,26.483,11.857,26.483,26.483v300.138
		c0,14.626-11.857,26.483-26.483,26.483H26.488c-14.626,0-26.483-11.857-26.483-26.483V26.483C0.006,11.857,11.862,0,26.488,0z"/>
	<path style="fill:#ECF0F1;" d="M44.144,35.31h423.724c4.875,0,8.828,3.952,8.828,8.828v264.828c0,4.875-3.952,8.828-8.828,8.828
		H44.144c-4.875,0-8.828-3.952-8.828-8.828V44.138C35.316,39.263,39.268,35.31,44.144,35.31z"/>
	<g>
		<path style="fill:#95A5A5;" d="M326.626,97.103h-35.31c-4.875,0-8.828-3.952-8.828-8.828c0-4.875,3.952-8.828,8.828-8.828h35.31
			c4.875,0,8.828,3.952,8.828,8.828C335.454,93.151,331.502,97.103,326.626,97.103z"/>
		<path style="fill:#95A5A5;" d="M441.385,97.103h-79.448c-4.875,0-8.828-3.952-8.828-8.828c0-4.875,3.952-8.828,8.828-8.828h79.448
			c4.875,0,8.828,3.952,8.828,8.828C450.212,93.151,446.26,97.103,441.385,97.103z"/>
		<path style="fill:#95A5A5;" d="M361.937,132.414h-26.483c-4.875,0-8.828-3.952-8.828-8.828c0-4.875,3.952-8.828,8.828-8.828
			h26.483c4.875,0,8.828,3.952,8.828,8.828C370.764,128.462,366.812,132.414,361.937,132.414z"/>
		<path style="fill:#95A5A5;" d="M441.385,132.414h-44.138c-4.875,0-8.828-3.952-8.828-8.828c0-4.875,3.952-8.828,8.828-8.828
			h44.138c4.875,0,8.828,3.952,8.828,8.828C450.212,128.462,446.26,132.414,441.385,132.414z"/>
		<path style="fill:#95A5A5;" d="M300.144,132.414h-8.828c-4.875,0-8.828-3.952-8.828-8.828c0-4.875,3.952-8.828,8.828-8.828h8.828
			c4.875,0,8.828,3.952,8.828,8.828C308.971,128.462,305.019,132.414,300.144,132.414z"/>
		<path style="fill:#95A5A5;" d="M256.006,76.737c-2.341-0.001-4.587,0.929-6.243,2.585c-1.656,1.656-2.585,3.901-2.585,6.243v9.112
			c0,4.875,3.952,8.828,8.828,8.828s8.828-3.952,8.828-8.828v-9.112c0.001-2.341-0.929-4.587-2.585-6.243
			C260.593,77.666,258.347,76.736,256.006,76.737z"/>
		<path style="fill:#95A5A5;" d="M247.178,35.31v13.771c0,4.875,3.952,8.828,8.828,8.828s8.828-3.952,8.828-8.828V35.31H247.178z"/>
		<path style="fill:#95A5A5;" d="M256.006,122.297c-2.341-0.001-4.587,0.929-6.243,2.585c-1.656,1.656-2.585,3.901-2.585,6.243
			v9.112c0,4.875,3.952,8.828,8.828,8.828s8.828-3.952,8.828-8.828v-9.112c0.001-2.341-0.929-4.587-2.585-6.243
			C260.593,123.227,258.347,122.297,256.006,122.297z"/>
		<path style="fill:#95A5A5;" d="M256.006,167.853c-2.341-0.001-4.587,0.929-6.243,2.585c-1.656,1.656-2.585,3.901-2.585,6.243
			v9.112c0,4.875,3.952,8.828,8.828,8.828s8.828-3.952,8.828-8.828v-9.112c0.001-2.341-0.929-4.587-2.585-6.243
			C260.593,168.783,258.347,167.853,256.006,167.853z"/>
		<path style="fill:#95A5A5;" d="M256.006,213.414c-2.341-0.001-4.587,0.929-6.243,2.585c-1.656,1.656-2.585,3.901-2.585,6.243
			v9.112c0,4.875,3.952,8.828,8.828,8.828s8.828-3.952,8.828-8.828v-9.112c0.001-2.341-0.929-4.587-2.585-6.243
			C260.593,214.343,258.347,213.413,256.006,213.414z"/>
		<path style="fill:#95A5A5;" d="M256.006,256c-2.341-0.001-4.587,0.929-6.243,2.585c-1.656,1.656-2.585,3.901-2.585,6.243v8.828
			c0,4.875,3.952,8.828,8.828,8.828s8.828-3.952,8.828-8.828v-8.828c0.001-2.341-0.929-4.587-2.585-6.243
			C260.593,256.929,258.347,255.999,256.006,256z"/>
		<path style="fill:#95A5A5;" d="M256.006,304.817c-4.936,0.181-8.84,4.241-8.828,9.181v0.088c0.01,1.287,0.312,2.554,0.883,3.708
			h15.625c0.74-1.354,1.134-2.871,1.148-4.414c-0.018-2.312-0.962-4.52-2.621-6.129C260.553,305.64,258.317,304.764,256.006,304.817
			z"/>
	</g>
	<g>
		<path style="fill:#F3D55B;" d="M98.764,171.034c14.951,0,28.43-9.006,34.152-22.819c5.722-13.813,2.559-29.713-8.013-40.285
			s-26.472-13.735-40.285-8.013c-13.813,5.722-22.819,19.201-22.819,34.152C61.823,154.474,78.359,171.01,98.764,171.034z
			 M98.764,114.759c7.81,0,14.852,4.705,17.841,11.92s1.337,15.522-4.186,21.044s-13.828,7.175-21.044,4.186
			c-7.216-2.989-11.921-10.03-11.921-17.84C79.467,123.41,88.105,114.772,98.764,114.759z"/>
		<path style="fill:#F3D55B;" d="M192.557,190.897c-20.415,0-36.965,16.55-36.965,36.966c0,20.415,16.55,36.965,36.966,36.965
			c20.415,0,36.965-16.55,36.965-36.966C229.499,207.456,212.963,190.92,192.557,190.897z M192.118,247.177
			c-10.607-0.239-19.036-8.99-18.877-19.598c0.159-10.609,8.845-19.104,19.454-19.026c10.61,0.078,19.17,8.699,19.173,19.309
			c-0.032,5.188-2.138,10.148-5.847,13.776C202.311,245.266,197.305,247.26,192.118,247.177z"/>
		<path style="fill:#F3D55B;" d="M217.557,109.069c-1.655-1.656-3.9-2.586-6.241-2.586s-4.586,0.93-6.241,2.586l-131.31,131.31
			c-2.23,2.23-3.101,5.48-2.285,8.526c0.816,3.046,3.195,5.425,6.241,6.241c3.046,0.816,6.296-0.055,8.526-2.285l131.31-131.31
			c1.656-1.655,2.586-3.9,2.586-6.241S219.213,110.724,217.557,109.069z"/>
	</g>
	<path style="fill:#BDC3C7;" d="M170.819,394.77l41.666-41.666l6.974-6.886l28.337-28.425l8.21-8.21l150.687-150.687
		c20.127,20.242,20.127,52.939,0,73.181l-85.716,85.716l-28.337,28.425h-0.088l-6.886,6.886l-29.661,29.661l-48.64,48.64"/>
	<g>
		<path style="fill:#7F8C8D;" d="M404.133,408.894c-23.591-23.567-61.818-23.554-85.392,0.029c-23.575,23.583-23.575,61.81,0,85.392
			c23.575,23.583,61.801,23.596,85.392,0.029c11.346-11.324,17.722-26.696,17.722-42.726
			C421.854,435.589,415.478,420.218,404.133,408.894z M379.768,469.892c-7.395,7.413-18.529,9.638-28.205,5.637
			c-9.676-4.001-15.987-13.44-15.987-23.91c0-10.471,6.311-19.909,15.987-23.91c9.676-4.001,20.81-1.776,28.205,5.637
			c4.847,4.846,7.57,11.419,7.57,18.273S384.615,465.046,379.768,469.892z"/>
		<path style="fill:#7F8C8D;" d="M193.241,408.894c-23.591-23.567-61.818-23.554-85.392,0.029c-23.575,23.583-23.575,61.81,0,85.392
			s61.801,23.596,85.392,0.029c11.346-11.324,17.722-26.696,17.722-42.726C210.963,435.589,204.587,420.218,193.241,408.894z
			 M168.877,469.892c-7.395,7.413-18.529,9.638-28.205,5.637c-9.676-4.001-15.987-13.44-15.987-23.91
			c0-10.471,6.311-19.909,15.987-23.91c9.676-4.001,20.81-1.776,28.205,5.637c4.847,4.846,7.57,11.419,7.57,18.273
			S173.724,465.046,168.877,469.892z"/>
	</g>
</g>
<g>
</g>
<g>
</g>
<g>
</g>
<g>
</g>
<g>
</g>
<g>
</g>
<g>
</g>
<g>
</g>
<g>
</g>
<g>
</g>
<g>
</g>
<g>
</g>
<g>
</g>
<g>
</g>
<g>
</g>
</svg>
